<?xml version="1.0" encoding="iso-8859-1"?>
<!-- Generator: Adobe Illustrator 19.0.0, SVG Export Plug-In . SVG Version: 6.00 Build 0)  -->
<svg version="1.1" id="Capa_1" xmlns="http://www.w3.org/2000/svg" xmlns:xlink="http://www.w3.org/1999/xlink" x="0px" y="0px"
	 viewBox="0 0 512 512" style="enable-background:new 0 0 512 512;" xml:space="preserve">
<g>
	<g transform="translate(1 1)">
		<path style="fill:#607D8B;" d="M400.067,58.733v409.6c0.003,9.053-3.593,17.737-9.995,24.139
			c-6.402,6.402-15.085,9.997-24.139,9.995H41.667c-9.053,0.002-17.737-3.593-24.139-9.995s-9.997-15.085-9.995-24.139l0-409.6
			H400.067z"/>
		<path style="fill:#CFD8DC;" d="M374.467,58.733v409.6c0.002,9.053-3.593,17.737-9.995,24.139s-15.085,9.997-24.139,9.995H41.667
			c-9.053,0.002-17.737-3.593-24.139-9.995s-9.997-15.085-9.995-24.139l0-409.6H374.467z"/>
		<path style="fill:#1566C0;" d="M400.067,41.667V75.8H7.533l0-34.133c-0.003-9.054,3.593-17.737,9.995-24.139
			s15.085-9.997,24.139-9.995h324.267c9.054-0.003,17.737,3.593,24.139,9.995C396.474,23.93,400.069,32.613,400.067,41.667z"/>
		<path style="fill:#2296F3;" d="M374.467,41.667V75.8H7.533l0-34.133c-0.003-9.054,3.593-17.737,9.995-24.139
			s15.085-9.997,24.139-9.995h298.667c9.054-0.003,17.737,3.593,24.139,9.995S374.469,32.613,374.467,41.667z"/>
		<path style="fill:#00BCD4;" d="M357.4,127v153.6c-0.031,2.301-0.948,4.502-2.56,6.144l-102.827-94.891
			c-3.2-2.908-8.063-2.981-11.349-0.171l-53.931,46.251l-28.587-28.587c-3.105-3.154-8.105-3.413-11.52-0.597l-93.696,78.08
			c-1.757-1.592-2.751-3.858-2.731-6.229V127c0.014-4.707,3.826-8.519,8.533-8.533h290.133
			C353.574,118.481,357.386,122.293,357.4,127z"/>
		<g>
			<path style="fill:#4CAF50;" d="M331.8,265.496v23.637H127l59.733-51.2l53.931-46.251c3.286-2.81,8.149-2.737,11.349,0.171
				L331.8,265.496z"/>
			<path style="fill:#4CAF50;" d="M186.733,237.933L127,289.133H58.733c-2.158,0.004-4.235-0.821-5.803-2.304l93.696-78.08
				c3.415-2.816,8.415-2.557,11.52,0.597L186.733,237.933z"/>
		</g>
		<circle style="fill:#FFEB3A;" cx="101.4" cy="169.667" r="17.067"/>
		<path style="fill:#00838F;" d="M357.4,118.467v170.667h-8.533c2.222-0.009,4.358-0.864,5.973-2.389l-23.04-21.248V118.467H357.4z"
			/>
		<path style="fill:#CFD8DC;" d="M306.2,365.933v76.8c-0.028,9.414-7.652,17.039-17.067,17.067h-20.139
			c-0.916,0.004-1.831-0.082-2.73-0.256c-7.017-1.142-12.592-6.513-13.996-13.483l-14.335-80.128H306.2z"/>
		<path style="fill:#F4F4F4;" d="M280.6,365.933v76.8c-0.017,8.358-6.085,15.473-14.335,16.811
			c-7.017-1.142-12.592-6.513-13.996-13.483l-14.335-80.128H280.6z"/>
		<path style="fill:#4CAF50;" d="M348.867,272.067v102.4H237.933c-9.053,0.002-17.737-3.593-24.139-9.995
			c-6.402-6.402-9.997-15.085-9.995-24.139V306.2c-0.003-9.053,3.593-17.737,9.995-24.139s15.085-9.997,24.139-9.995H348.867z"/>
		<polygon style="fill:#CFD8DC;" points="442.733,212.333 442.733,434.2 417.133,420.376 331.8,374.467 331.8,272.067 
			417.133,226.157 		"/>
		<polygon style="fill:#F4F4F4;" points="425.667,226.157 425.667,420.376 331.8,374.467 331.8,272.067 		"/>
		<path style="fill:#2E7D32;" d="M502.467,212.333V434.2c0,14.138-11.462,25.6-25.6,25.6s-25.6-11.462-25.6-25.6V212.333
			c0-14.138,11.462-25.6,25.6-25.6S502.467,198.195,502.467,212.333z"/>
		<path style="fill:#4CAF50;" d="M476.867,212.333V434.2c0.013,9.154-4.869,17.616-12.8,22.187
			c-7.931-4.571-12.813-13.033-12.8-22.187V212.333c-0.012-9.154,4.869-17.616,12.8-22.187c1.92,1.151,3.696,2.526,5.291,4.096
			C474.165,199.035,476.867,205.545,476.867,212.333z"/>
	</g>
	<g>
		<path d="M49.492,34.304c-0.534,0.091-1.051,0.263-1.533,0.508c-0.546,0.187-1.064,0.447-1.542,0.771l-1.275,1.025
			c-0.753,0.829-1.359,1.78-1.792,2.813c-0.438,1.027-0.67,2.13-0.683,3.246c0.03,2.26,0.914,4.424,2.475,6.059
			c1.627,1.572,3.796,2.459,6.059,2.475c2.259-0.035,4.421-0.918,6.059-2.475c0.341-0.429,0.683-0.854,1.025-1.367
			c0.337-0.436,0.596-0.926,0.767-1.45c0.247-0.483,0.419-1.002,0.508-1.537c0.103-0.563,0.162-1.133,0.175-1.705
			c0.022-2.57-1.124-5.012-3.115-6.638C54.627,34.403,52.006,33.769,49.492,34.304z"/>
		<path d="M79.275,36.608c-3.3,3.365-3.3,8.752,0,12.117c2.441,2.462,6.129,3.201,9.331,1.872s5.281-4.464,5.261-7.931
			c0.02-3.467-2.059-6.601-5.261-7.931C85.404,33.407,81.716,34.146,79.275,36.608z"/>
		<path d="M124.158,35.583c-0.435-0.339-0.926-0.6-1.45-0.771c-0.51-0.258-1.059-0.43-1.625-0.508
			c-2.78-0.504-5.633,0.352-7.675,2.304c-3.3,3.365-3.3,8.752,0,12.117c2.441,2.461,6.129,3.201,9.33,1.872
			c3.202-1.329,5.281-4.463,5.261-7.93c-0.033-2.259-0.917-4.422-2.475-6.059C125.1,36.267,124.667,35.925,124.158,35.583z"/>
		<path d="M238.933,34.133h-68.267c-4.713,0-8.533,3.821-8.533,8.533s3.821,8.533,8.533,8.533h68.267
			c4.713,0,8.533-3.821,8.533-8.533S243.646,34.133,238.933,34.133z"/>
		<path d="M102.4,145.067c-14.138,0-25.6,11.462-25.6,25.6c0,14.139,11.462,25.6,25.6,25.6s25.6-11.462,25.6-25.6
			C127.985,156.535,116.532,145.082,102.4,145.067z M102.4,179.2c-4.713,0-8.533-3.821-8.533-8.533c0-4.713,3.821-8.533,8.533-8.533
			c4.713,0,8.533,3.821,8.533,8.533C110.929,175.378,107.111,179.195,102.4,179.2z"/>
		<path d="M170.667,315.733H51.2c-4.713,0-8.533,3.821-8.533,8.533s3.821,8.533,8.533,8.533h119.467c4.713,0,8.533-3.82,8.533-8.533
			S175.38,315.733,170.667,315.733z"/>
		<path d="M170.667,349.867H51.2c-4.713,0-8.533,3.82-8.533,8.533s3.821,8.533,8.533,8.533h119.467c4.713,0,8.533-3.82,8.533-8.533
			S175.38,349.867,170.667,349.867z"/>
		<path d="M170.667,384H51.2c-4.713,0-8.533,3.82-8.533,8.533s3.821,8.533,8.533,8.533h119.467c4.713,0,8.533-3.82,8.533-8.533
			S175.38,384,170.667,384z"/>
		<path d="M170.667,418.133H51.2c-4.713,0-8.533,3.82-8.533,8.533s3.821,8.533,8.533,8.533h119.467c4.713,0,8.533-3.82,8.533-8.533
			S175.38,418.133,170.667,418.133z"/>
		<path d="M170.667,452.267H51.2c-4.713,0-8.533,3.82-8.533,8.533s3.821,8.533,8.533,8.533h119.467c4.713,0,8.533-3.82,8.533-8.533
			S175.38,452.267,170.667,452.267z"/>
		<path d="M477.867,179.2c-16.671,0.04-30.87,12.127-33.571,28.578L409.6,225.125V42.667C409.572,19.114,390.486,0.028,366.933,0
			H42.667C19.114,0.028,0.028,19.114,0,42.667v426.667C0.028,492.886,19.114,511.972,42.667,512h324.267
			c23.553-0.028,42.639-19.114,42.667-42.667v-45.925l34.695,17.347c2.866,17.529,18.714,29.916,36.416,28.464
			S512.03,452.961,512,435.2V213.333C511.979,194.491,496.709,179.221,477.867,179.2z M17.067,42.667
			c0.015-14.132,11.468-25.585,25.6-25.6h324.267c14.132,0.015,25.585,11.468,25.6,25.6v25.6H17.067V42.667z M392.533,469.333
			c-0.015,14.132-11.468,25.585-25.6,25.6H42.667c-14.132-0.015-25.585-11.468-25.6-25.6v-384h375.467v148.325l-25.6,12.8V128
			c-0.011-9.421-7.645-17.056-17.067-17.067H59.733c-9.421,0.011-17.056,7.645-17.067,17.067v153.6
			c0.007,4.318,1.673,8.468,4.654,11.592l0.054,0.1c0.031,0.037,0.079,0.047,0.11,0.084c0.205,0.207,0.365,0.459,0.582,0.654
			c3.15,2.985,7.327,4.645,11.667,4.638h137.396c-0.573,2.808-0.862,5.667-0.862,8.533v34.133
			c0.05,20.767,15.052,38.478,35.528,41.945l13.097,65.472c2.411,11.955,12.905,20.56,25.1,20.583h20.142
			c14.132-0.015,25.585-11.468,25.6-25.6V384h15.05l61.75,30.875V469.333z M238.933,366.933c-14.132-0.015-25.585-11.468-25.6-25.6
			V307.2c0.015-14.132,11.468-25.585,25.6-25.6h85.333v85.333H238.933z M298.667,384v59.733c-0.005,4.711-3.822,8.529-8.533,8.533
			h-20.142c-4.066-0.006-7.565-2.876-8.367-6.863L249.342,384H298.667z M247.225,199.125l70.852,65.408h-79.143
			c-13.36,0.04-25.922,6.362-33.915,17.067h-53.963L247.225,199.125z M124.846,281.6H74.741l78.334-65.258l22.104,22.104
			L124.846,281.6z M258.792,186.571c-6.389-5.819-16.109-5.976-22.683-0.367l-47.937,41.101l-23.022-23.025
			c-6.22-6.286-16.225-6.743-22.992-1.05l-82.425,68.662V128h290.133v126.992l-11,5.5L258.792,186.571z M443.733,421.392
			l-102.4-51.2v-91.85l102.4-51.2V421.392z M494.933,435.2c0,9.426-7.641,17.067-17.067,17.067S460.8,444.626,460.8,435.2V213.333
			c0-9.426,7.641-17.067,17.067-17.067s17.067,7.641,17.067,17.067V435.2z"/>
	</g>
</g>
<g>
</g>
<g>
</g>
<g>
</g>
<g>
</g>
<g>
</g>
<g>
</g>
<g>
</g>
<g>
</g>
<g>
</g>
<g>
</g>
<g>
</g>
<g>
</g>
<g>
</g>
<g>
</g>
<g>
</g>
</svg>
