<svg id="Capa_1" enable-background="new 0 0 512 512" height="512" viewBox="0 0 512 512" width="512" xmlns="http://www.w3.org/2000/svg"><g><g><path d="m270.788 324.7c.088-.088.177-.175.267-.261 34.837-33.145 69.086-47.255 99.303-59.705 33.326-13.731 62.108-25.589 88.113-59.813 3.094-4.072 8.03-6.283 13.149-5.876 5.098.411 9.635 3.392 12.037 7.908.771 1.451 18.971 36.069 25.251 82.989 8.488 63.408-8.96 118.858-50.458 160.355-54.414 54.414-138.558 61.703-179.725 61.703-7.026 0-12.794-.212-16.955-.439l-23.325-19.101c-3.715-10.489-8.901-28.405-10.417-49.99-3.22-45.851 11.566-86.575 42.76-117.77z" fill="#9cdd05"/><path d="m471.62 199.045c5.098.411 9.635 3.392 12.037 7.908.771 1.451 18.971 36.069 25.251 82.989 8.488 63.408-8.96 118.858-50.458 160.355-54.414 54.414-138.558 61.703-179.725 61.703-7.026 0-12.794-.212-16.955-.439l-11.663-9.55 161.14-161.14c37.697-37.697 59.334-88.525 60.373-141.826z" fill="#85bb04"/><path d="m379.458 393.873-117.688 117.688c-4.047-.22-6.574-.454-7.235-.52-5.269-.518-9.874-3.775-12.117-8.571-.179-.382-1.833-3.967-3.973-10.01l119.8-119.8c5.858-5.858 15.355-5.858 21.213 0 5.858 5.858 5.858 15.355 0 21.213z" fill="#85bb04"/><path d="m251.127 500.991-5.725 5.724 5.725-5.724 128.331-128.331c5.858 5.858 5.858 15.355 0 21.213l-117.688 117.688c-4.047-.22-6.574-.454-7.235-.52-3.507-.345-6.715-1.908-9.133-4.326z" fill="#628903"/></g><g><path d="m241.212 324.7c-.088-.088-.177-.175-.267-.261-34.837-33.145-69.086-47.255-99.303-59.705-33.326-13.731-62.108-25.589-88.113-59.813-3.094-4.072-8.03-6.283-13.149-5.876-5.098.411-9.635 3.392-12.037 7.908-.771 1.451-18.971 36.069-25.251 82.989-8.488 63.408 8.96 118.858 50.458 160.355 54.414 54.414 138.558 61.703 179.725 61.703 7.026 0 12.794-.212 16.955-.439l23.325-19.101c3.715-10.489 8.901-28.405 10.417-49.99 3.22-45.851-11.566-86.575-42.76-117.77z" fill="#ccfc5c"/><path d="m40.38 199.045c-5.098.411-9.635 3.392-12.037 7.908-.771 1.451-18.971 36.069-25.251 82.989-8.488 63.408 8.96 118.858 50.458 160.355 54.414 54.414 138.558 61.703 179.725 61.703 7.026 0 12.794-.212 16.955-.439l11.663-9.55-161.14-161.14c-37.697-37.697-59.334-88.525-60.373-141.826z" fill="#9cdd05"/><path d="m132.542 393.873 117.688 117.688c4.047-.22 6.574-.454 7.235-.52 5.269-.518 9.874-3.775 12.117-8.571.179-.382 1.833-3.967 3.973-10.01l-119.8-119.8c-5.858-5.858-15.355-5.858-21.213 0-5.858 5.858-5.858 15.355 0 21.213z" fill="#9cdd05"/><path d="m260.873 500.991 5.725 5.724-5.725-5.724-128.331-128.331c-5.858 5.858-5.858 15.355 0 21.213l117.688 117.688c4.047-.22 6.574-.454 7.235-.52 3.507-.345 6.715-1.908 9.133-4.326z" fill="#85bb04"/></g><path d="m384.424 26.576c-17.138-17.138-39.924-26.576-64.16-26.576s-47.021 9.438-64.159 26.576l-.105.104-.104-.104c-17.138-17.138-39.923-26.576-64.16-26.576s-47.022 9.438-64.16 26.576-26.576 39.924-26.576 64.16 9.438 47.022 26.576 64.16l117.817 117.818c5.858 5.858 15.355 5.858 21.213 0l117.817-117.818c17.139-17.138 26.577-39.924 26.577-64.16s-9.438-47.022-26.576-64.16z" fill="#ff5e93"/><path d="m384.424 26.576c-17.138-17.138-39.924-26.576-64.16-26.576s-47.021 9.438-64.159 26.576l-.105.104v250.427c3.839 0 7.678-1.464 10.607-4.393l117.817-117.818c17.138-17.138 26.576-39.924 26.576-64.16s-9.438-47.022-26.576-64.16z" fill="#e50058"/></g></svg>