<?xml version="1.0"?>
<svg xmlns="http://www.w3.org/2000/svg" xmlns:xlink="http://www.w3.org/1999/xlink" xmlns:svgjs="http://svgjs.com/svgjs" version="1.1" width="512" height="512" x="0" y="0" viewBox="0 0 512 512" style="enable-background:new 0 0 512 512" xml:space="preserve" class=""><g>
<g xmlns="http://www.w3.org/2000/svg">
	<g>
		<g>
			<path d="M256,0C114.842,0,0,114.842,0,256c0,32.495,6.153,63.556,17.237,92.177c14.891-15.966,30.583-31.164,37.914-35.447     c2.782-1.621,6.238-1.536,8.943,0.196c22.938,14.839,53.675,14.839,76.612,0c2.705-1.741,6.153-1.826,8.943-0.196     c4.745,2.773,9.182,6.17,13.457,9.839c8.346-8.687,17.98-16.384,28.86-22.733c2.773-1.621,6.229-1.536,8.934,0.196     c16.111,10.419,34.654,15.701,55.1,15.701s38.989-5.282,55.1-15.701c2.705-1.732,6.17-1.818,8.934-0.196     c10.871,6.349,20.506,14.037,28.843,22.716c4.275-3.661,8.704-7.057,13.44-9.822c2.782-1.63,6.229-1.545,8.943,0.196     c22.938,14.839,53.675,14.839,76.612,0c2.714-1.732,6.178-1.818,8.943-0.196c8.32,4.864,24.038,20.48,37.794,35.831     C505.796,319.829,512,288.631,512,256C512,114.842,397.158,0,256,0z M102.4,307.2c-32.939,0-59.733-26.795-59.733-59.733     s26.795-59.733,59.733-59.733s59.733,26.795,59.733,59.733S135.339,307.2,102.4,307.2z M256,281.6     c-47.053,0-85.333-38.281-85.333-85.333s38.281-85.333,85.333-85.333s85.333,38.281,85.333,85.333S303.053,281.6,256,281.6z      M409.566,307.2c-32.939,0-59.733-26.795-59.733-59.733s26.795-59.733,59.733-59.733c32.939,0,59.733,26.795,59.733,59.733     S442.505,307.2,409.566,307.2z" fill="#1877f2" data-original="#000000" style="" class=""/>
			<path d="M256,128c-37.641,0-68.267,30.626-68.267,68.267c0,37.641,30.626,68.267,68.267,68.267     c37.641,0,68.267-30.626,68.267-68.267C324.267,158.626,293.641,128,256,128z" fill="#1877f2" data-original="#000000" style="" class=""/>
			<path d="M409.567,204.8c-23.526,0-42.667,19.14-42.667,42.667c0,23.526,19.14,42.667,42.667,42.667     c23.526,0,42.667-19.14,42.667-42.667C452.233,223.94,433.093,204.8,409.567,204.8z" fill="#1877f2" data-original="#000000" style="" class=""/>
			<path d="M102.4,204.8c-23.526,0-42.667,19.14-42.667,42.667c0,23.526,19.14,42.667,42.667,42.667     c23.526,0,42.667-19.14,42.667-42.667C145.067,223.94,125.926,204.8,102.4,204.8z" fill="#1877f2" data-original="#000000" style="" class=""/>
			<path d="M452.15,330.262c-26.138,14.566-59.324,14.515-85.427-0.145c-2.398,1.63-4.71,3.456-6.963,5.393     c15.565,21.239,24.243,46.874,24.243,74.086v67.959c44.672-25.907,80.853-64.888,103.194-111.727     C475.429,352.304,460.828,337.149,452.15,330.262z" fill="#1877f2" data-original="#000000" style="" class=""/>
			<path d="M315.733,317.21C297.941,327.561,277.871,332.8,256,332.8c-21.871,0-41.941-5.239-59.733-15.59     c-32.162,20.659-51.2,54.844-51.2,92.39v77.09C178.645,502.912,216.286,512,256,512c39.714,0,77.355-9.088,110.933-25.31V409.6     C366.933,372.053,347.896,337.869,315.733,317.21z" fill="#1877f2" data-original="#000000" style="" class=""/>
			<path d="M145.246,330.121c-26.095,14.652-59.247,14.711-85.402,0.162c-8.141,6.562-22.434,21.103-35.226,35.14     C46.942,412.442,83.2,451.576,128,477.56V409.6c0-27.204,8.67-52.838,24.218-74.069     C149.965,333.585,147.652,331.75,145.246,330.121z" fill="#1877f2" data-original="#000000" style="" class=""/>
		</g>
	</g>
</g>
<g xmlns="http://www.w3.org/2000/svg">
</g>
<g xmlns="http://www.w3.org/2000/svg">
</g>
<g xmlns="http://www.w3.org/2000/svg">
</g>
<g xmlns="http://www.w3.org/2000/svg">
</g>
<g xmlns="http://www.w3.org/2000/svg">
</g>
<g xmlns="http://www.w3.org/2000/svg">
</g>
<g xmlns="http://www.w3.org/2000/svg">
</g>
<g xmlns="http://www.w3.org/2000/svg">
</g>
<g xmlns="http://www.w3.org/2000/svg">
</g>
<g xmlns="http://www.w3.org/2000/svg">
</g>
<g xmlns="http://www.w3.org/2000/svg">
</g>
<g xmlns="http://www.w3.org/2000/svg">
</g>
<g xmlns="http://www.w3.org/2000/svg">
</g>
<g xmlns="http://www.w3.org/2000/svg">
</g>
<g xmlns="http://www.w3.org/2000/svg">
</g>
</g></svg>
