<svg id="Capa_1" enable-background="new 0 0 510 510" height="512" viewBox="0 0 510 510" width="512" xmlns="http://www.w3.org/2000/svg"><g><path d="m60 300h-60v-150h60l10 79.5z" fill="#384949"/><g><path d="m380 225 10.006 54.273 44.994 22.498 10-76.771-10-76.77-45 22.5z" fill="#4a696f"/><path d="m480 125.729-45 22.501v153.541l45.008 22.503 9.992-95.274z" fill="#384949"/></g><path d="m480 90h30v270h-30z" fill="#293939"/><g><path d="m210 390-15.5-10-16.525 10-57.975 69.569v50.431h30v-39.569l45-54v93.569h15l10-59.5z" fill="#4a696f"/><path d="m242.027 390.002-16.86-10.002-15.167 10.004v119.996h15v-93.569l45 54v39.569h30v-50.431z" fill="#384949"/></g><path d="m105 330v60h105l10-30-10-30-52.5-10z" fill="#384949"/><path d="m257 320-47 10v60h105v-60z" fill="#293939"/><path d="m135 125-15-5v-90h90l5 15-5 15h-60v60z" fill="#384949"/><g><path d="m60 120v210h150l10-107.5-10-102.5z" fill="#4a696f"/><path d="m210 120h180v210h-180z" fill="#384949"/></g><g><path d="m120 180v90h90l10-45-10-45z" fill="#69f"/><path d="m210 180h60v90h-60z" fill="#2c87f4"/></g><path d="m315 90h-105v-90h105c24.814 0 45 20.188 45 45s-20.186 45-45 45z" fill="#4a696f"/><path d="m300 240h30v30h-30z" fill="#76e2f8"/><path d="m300 180h30v30h-30z" fill="#fb3"/></g></svg>