<?xml version="1.0"?>
<svg xmlns="http://www.w3.org/2000/svg" xmlns:xlink="http://www.w3.org/1999/xlink" xmlns:svgjs="http://svgjs.com/svgjs" version="1.1" width="512" height="512" x="0" y="0" viewBox="0 0 512 512" style="enable-background:new 0 0 512 512" xml:space="preserve" class=""><g><g xmlns="http://www.w3.org/2000/svg"><path d="m15 496c9.467 0 110.433 0 106 0v-195c0-8.286-6.716-15-15-15h-61c-8.284 0-15 6.714-15 15v165h-15c-8.291 0-15 6.709-15 15s6.709 15 15 15z" fill="#1877f2" data-original="#000000" style=""/><path d="m226 196h-60c-8.284 0-15 6.714-15 15v285h90v-285c0-8.286-6.716-15-15-15z" fill="#1877f2" data-original="#000000" style=""/><path d="m346 106h-60c-8.284 0-15 6.714-15 15v375h90v-375c0-8.286-6.716-15-15-15z" fill="#1877f2" data-original="#000000" style=""/><path d="m497 466h-15v-435c0-8.284-6.716-15-15-15h-61c-8.284 0-15 6.716-15 15v465c4.955 0 111.649 0 106 0 8.291 0 15-6.709 15-15s-6.709-15-15-15z" fill="#1877f2" data-original="#000000" style=""/></g></g></svg>
