<svg id="Capa_1" enable-background="new 0 0 512 512" height="512" viewBox="0 0 512 512" width="512" xmlns="http://www.w3.org/2000/svg"><g id="XMLID_2676_"><path id="XMLID_3407_" d="m256 10c-67.931 0-129.417 27.548-173.935 72.065l-28.512-28.512v92.333h92.333l-29.888-29.888c35.831-35.831 85.326-57.998 140.002-57.998 109.352 0 198 88.647 198 198s-88.648 198-198 198-198-88.647-198-198h-48c0 135.862 110.138 246 246 246s246-110.138 246-246-110.138-246-246-246z" fill="#cbcbf0"/><circle id="XMLID_3403_" cx="256" cy="256" fill="#ffda8f" r="32"/><g id="XMLID_334_" fill="#8180dd"><path id="XMLID_348_" d="m437.02 74.98c-48.353-48.351-112.64-74.98-181.02-74.98-65.019 0-126.349 24.093-173.8 68.058l-21.576-21.577c-2.86-2.86-7.162-3.715-10.898-2.168-3.737 1.548-6.173 5.194-6.173 9.239v92.334c0 5.522 4.477 10 10 10h92.333c4.044 0 7.691-2.437 9.239-6.173 1.548-3.737.692-8.038-2.167-10.898l-22.634-22.634c34.564-31.145 78.813-48.181 125.676-48.181 103.663 0 188 84.337 188 188s-84.337 188-188 188c-103.664 0-188-84.337-188-188 0-5.522-4.477-10-10-10h-48c-5.523 0-10 4.478-10 10 0 68.38 26.628 132.667 74.981 181.02 48.352 48.351 112.639 74.98 181.019 74.98s132.667-26.629 181.02-74.98c48.351-48.353 74.98-112.64 74.98-181.02s-26.629-132.667-74.98-181.02zm-181.02 417.02c-126.779 0-230.53-100.491-235.791-226h28.028c5.237 110.065 96.425 198 207.763 198 114.691 0 208-93.309 208-208s-93.309-208-208-208c-55.552 0-107.784 21.638-147.073 60.927-3.905 3.905-3.905 10.237 0 14.143l12.817 12.817h-58.191v-58.192l11.441 11.441c3.906 3.904 10.238 3.905 14.142 0 44.585-44.583 103.845-69.136 166.864-69.136 130.131 0 236 105.869 236 236s-105.869 236-236 236z"/><path id="XMLID_362_" d="m206.881 192.739c-3.905-3.904-10.237-3.904-14.142 0-3.905 3.905-3.905 10.237 0 14.143l27.353 27.352c-3.864 6.351-6.092 13.803-6.092 21.766 0 23.159 18.841 42 42 42s42-18.841 42-42c0-11.9-4.983-22.652-12.962-30.301l51.609-89.639c2.756-4.786 1.109-10.899-3.677-13.655-4.788-2.757-10.899-1.108-13.655 3.677l-51.586 89.598c-3.725-1.087-7.657-1.68-11.729-1.68-7.963 0-15.415 2.228-21.766 6.092zm71.119 63.261c0 12.131-9.869 22-22 22s-22-9.869-22-22 9.869-22 22-22 22 9.869 22 22z"/><path id="XMLID_363_" d="m414 266c5.522 0 10-4.478 10-10s-4.478-10-10-10h-13.69c-5.522 0-10 4.478-10 10s4.478 10 10 10z"/><path id="XMLID_364_" d="m111.69 266c5.523 0 10-4.478 10-10s-4.477-10-10-10h-13.69c-5.523 0-10 4.478-10 10s4.477 10 10 10z"/><path id="XMLID_365_" d="m246 400.315v13.69c0 5.522 4.477 10 10 10 5.522 0 10-4.478 10-10v-13.69c0-5.522-4.478-10-10-10-5.523 0-10 4.478-10 10z"/><path id="XMLID_366_" d="m266 112.057v-13.69c0-5.522-4.478-10-10-10-5.523 0-10 4.478-10 10v13.69c0 5.522 4.477 10 10 10 5.522 0 10-4.478 10-10z"/></g></g></svg>