<svg id="Capa_1" enable-background="new 0 0 512 512" height="512" viewBox="0 0 512 512" width="512" xmlns="http://www.w3.org/2000/svg"><g><path d="m396 420h-280c-8.284 0-15-6.716-15-15v-265h310v265c0 8.284-6.716 15-15 15z" fill="#ff4a4a"/><path d="m256 420h140c8.284 0 15-6.716 15-15v-265h-155z" fill="#e20000"/><path d="m416 160h-320c-8.284 0-15-6.716-15-15v-50c0-8.284 6.716-15 15-15h320c8.284 0 15 6.716 15 15v50c0 8.284-6.716 15-15 15z" fill="#ff6378"/><path d="m416 80h-160v80h160c8.284 0 15-6.716 15-15v-50c0-8.284-6.716-15-15-15z" fill="#ff4a4a"/><path d="m241 80h30v340h-30z" fill="#ffdd54"/><path d="m256 80h15v340h-15z" fill="#ffb454"/><path d="m296 0c-15.75 0-29.964 6.665-40 17.31-10.036-10.645-24.25-17.31-40-17.31-30.327 0-55 24.673-55 55s24.673 55 55 55h80c30.327 0 55-24.673 55-55s-24.673-55-55-55zm-105 55c0-13.785 11.215-25 25-25s25 11.215 25 25v25h-25c-13.785 0-25-11.215-25-25zm105 25h-25v-25c0-13.785 11.215-25 25-25s25 11.215 25 25-11.215 25-25 25z" fill="#ffdd54"/><path d="m296 110c30.327 0 55-24.673 55-55s-24.673-55-55-55c-15.75 0-29.964 6.665-40 17.31v92.69zm-25-55c0-13.785 11.215-25 25-25s25 11.215 25 25-11.215 25-25 25h-25z" fill="#ffb454"/><g><path d="m75.007 512c-5.819 0-11.356-3.407-13.794-9.095l-60-140c-1.567-3.657-1.618-7.786-.14-11.479 1.478-3.694 4.362-6.649 8.019-8.216l55.146-23.633c7.614-3.263 16.432.264 19.696 7.878l60 140c1.567 3.657 1.618 7.786.14 11.479-1.478 3.694-4.362 6.649-8.019 8.216l-55.146 23.633c-1.927.826-3.931 1.217-5.902 1.217z" fill="#696e73"/><path d="m133.225 488.363h196.844c18.527 0 36.323-6.817 50.107-19.195l119.482-107.283c15.227-13.672 16.544-37.078 2.948-52.373-13.55-15.243-36.85-16.727-52.224-3.326l-101.184 88.194c-2.732 2.381-6.233 3.693-9.856 3.693h-107.171l18.856-67.879-6.029-6.876c-21.407-24.417-51.03-39.208-83.411-41.646-32.384-2.437-63.885 7.748-88.708 28.684l-13.299 11.217z" fill="#ffc2aa"/><path d="m360.657 360.59c0 20.702-16.782 37.483-37.483 37.483h-110.399c-3.778 0-7.502-1.052-10.316-3.151-4.8-3.582-6.254-9.142-3.992-13.929l23.577-49.889c2.255-4.771 7.778-7.911 13.932-7.919l87.166-.077c20.713-.02 37.515 16.767 37.515 37.482z" fill="#ffc2aa"/><g fill="#fab493"><path d="m323.141 323.106-67.141.06v74.907h67.174c20.702 0 37.483-16.782 37.483-37.483 0-20.715-16.802-37.502-37.516-37.484z"/><path d="m502.607 309.513c-13.55-15.243-36.85-16.727-52.224-3.326l-101.184 88.194c-2.732 2.381-6.233 3.693-9.856 3.693h-83.343v90.29h74.069c18.527 0 36.323-6.817 50.107-19.195l119.482-107.283c15.227-13.672 16.545-37.078 2.949-52.373z"/><path d="m212.774 428.073h110.399c37.21 0 67.483-30.273 67.483-67.483 0-.77-.032-1.531-.058-2.294l-41.4 36.085c-2.732 2.381-6.233 3.693-9.856 3.693h-126.568z"/></g><path d="m349.199 394.381c-2.732 2.381-6.233 3.693-9.856 3.693h-83.343v30h67.174c37.21 0 67.483-30.273 67.483-67.483 0-.77-.032-1.531-.058-2.294z" fill="#f5a07d"/></g></g></svg>