<?xml version="1.0"?>
<svg xmlns="http://www.w3.org/2000/svg" xmlns:xlink="http://www.w3.org/1999/xlink" xmlns:svgjs="http://svgjs.com/svgjs" version="1.1" width="512" height="512" x="0" y="0" viewBox="0 0 512.003 512.003" style="enable-background:new 0 0 512 512" xml:space="preserve" class=""><g>
<g xmlns="http://www.w3.org/2000/svg">
	<g>
		<g>
			<path d="M491.51,356.331c0.251-0.465,0.456-0.95,0.616-1.451c12.794-30.438,19.875-63.847,19.875-98.88     c0-141.158-114.842-256-256-256s-256,114.842-256,256c0,34.898,7.029,68.183,19.73,98.527c0.198,0.723,0.495,1.416,0.876,2.067     c22.386,52.185,61.637,95.477,110.856,123c0.301,0.223,0.617,0.429,0.95,0.614c11.168,6.167,22.785,11.466,34.725,15.878     c0.528,0.196,1.055,0.393,1.584,0.585c1.386,0.502,2.776,0.994,4.171,1.472c1.143,0.393,2.293,0.773,3.443,1.15     c0.227,0.074,0.454,0.148,0.681,0.222c16.224,5.275,33.151,8.97,50.604,10.904c0.068,0.008,0.136,0.016,0.204,0.023     c1.229,0.135,2.459,0.263,3.693,0.381c0.792,0.076,1.584,0.143,2.376,0.212c1.35,0.116,2.701,0.225,4.057,0.32     c1.24,0.088,2.48,0.167,3.721,0.237c0.572,0.032,1.142,0.067,1.714,0.095c1.852,0.092,3.705,0.161,5.56,0.212     c0.347,0.009,0.694,0.017,1.042,0.025c2.003,0.047,4.007,0.079,6.012,0.079s4.009-0.032,6.012-0.079     c0.347-0.008,0.695-0.015,1.042-0.025c1.855-0.051,3.708-0.12,5.56-0.212c0.573-0.028,1.143-0.064,1.714-0.095     c1.241-0.07,2.482-0.149,3.721-0.237c1.356-0.095,2.707-0.204,4.057-0.32c0.792-0.069,1.585-0.135,2.376-0.212     c1.234-0.118,2.464-0.246,3.693-0.381c0.068-0.008,0.136-0.016,0.204-0.023c17.453-1.934,34.379-5.629,50.603-10.904     c0.228-0.074,0.455-0.148,0.683-0.222c1.15-0.378,2.299-0.757,3.442-1.15c1.395-0.478,2.786-0.97,4.173-1.473     c0.528-0.192,1.054-0.388,1.581-0.584c11.941-4.413,23.559-9.711,34.727-15.879c0.333-0.185,0.649-0.391,0.95-0.614     C429.841,452.024,469.143,408.634,491.51,356.331z M256.001,17.067c131.746,0,238.933,107.187,238.933,238.933     c0,27.324-4.624,53.586-13.108,78.061c-7.029-8.518-15.487-15.76-25.017-21.329c-2.756-1.621-6.221-1.536-8.934,0.196     c-22.938,14.831-53.675,14.831-76.612,0c-2.714-1.741-6.17-1.826-8.943-0.205c-4.731,2.766-9.255,6.013-13.529,9.676     c-8.31-8.631-17.938-16.248-28.756-22.569c-2.765-1.613-6.229-1.536-8.934,0.205c-16.111,10.419-34.654,15.701-55.1,15.701     s-38.989-5.282-55.1-15.701c-2.705-1.741-6.161-1.818-8.934-0.205c-10.823,6.325-20.456,13.946-28.768,22.582     c-4.276-3.669-8.807-6.92-13.549-9.689c-2.79-1.621-6.238-1.536-8.943,0.205c-22.938,14.831-53.675,14.831-76.612,0     c-2.705-1.732-6.161-1.818-8.934-0.196c-9.52,5.563-17.97,12.796-24.994,21.301C21.688,309.566,17.068,283.314,17.068,256     C17.068,124.254,124.255,17.067,256.001,17.067z M366.935,467.565c-5.737,3.021-11.605,5.825-17.604,8.38     c-0.183,0.078-0.364,0.159-0.548,0.236c-1.23,0.52-2.471,1.019-3.711,1.519c-0.984,0.395-1.968,0.789-2.957,1.17     c-0.843,0.327-1.688,0.648-2.535,0.966c-1.689,0.63-3.383,1.246-5.085,1.837c-0.263,0.092-0.524,0.187-0.787,0.278     c-17.953,6.164-36.64,10.185-55.6,11.951c-0.341,0.031-0.682,0.061-1.023,0.091c-1.854,0.165-3.712,0.302-5.571,0.424     c-0.592,0.038-1.184,0.079-1.777,0.113c-1.642,0.095-3.286,0.164-4.93,0.225c-0.693,0.025-1.384,0.06-2.079,0.079     c-1.902,0.054-3.806,0.079-5.711,0.087c-0.339,0.001-0.675,0.013-1.014,0.013s-0.675-0.011-1.014-0.013     c-1.905-0.008-3.809-0.033-5.711-0.087c-0.695-0.019-1.386-0.054-2.079-0.079c-1.645-0.061-3.288-0.13-4.93-0.225     c-0.593-0.034-1.185-0.075-1.777-0.113c-1.859-0.121-3.717-0.259-5.571-0.424c-0.341-0.03-0.682-0.06-1.023-0.091     c-18.961-1.766-37.647-5.787-55.6-11.951c-0.263-0.091-0.524-0.186-0.787-0.278c-1.703-0.591-3.396-1.207-5.085-1.837     c-0.847-0.317-1.693-0.639-2.535-0.966c-0.989-0.382-1.973-0.775-2.957-1.17c-1.24-0.5-2.481-0.999-3.711-1.519     c-0.183-0.077-0.365-0.159-0.548-0.236c-5.999-2.555-11.867-5.36-17.604-8.38v-57.962c0-37.547,19.038-71.731,51.2-92.39     c17.792,10.342,37.862,15.59,59.733,15.59c21.871,0,41.941-5.248,59.733-15.59c32.162,20.659,51.2,54.844,51.2,92.39V467.565z      M37.586,352.819c5.722-9.039,13.206-16.778,21.969-22.706c26.189,14.711,59.494,14.711,85.692,0     c2.396,1.631,4.711,3.431,6.952,5.362c-15.565,21.237-24.198,46.905-24.198,74.127v48.066     C88.469,432.488,56.807,396.011,37.586,352.819z M384.001,457.669v-48.066c0-27.23-8.638-52.905-24.211-74.146     c2.236-1.924,4.544-3.717,6.933-5.343c26.197,14.711,59.503,14.711,85.692,0c8.773,5.934,16.263,13.685,21.988,22.738     C455.18,396.029,423.524,432.494,384.001,457.669z" fill="#999999" data-original="#000000" style="" class=""/>
			<path d="M256.001,281.6c47.053,0,85.333-38.281,85.333-85.333s-38.281-85.333-85.333-85.333s-85.333,38.281-85.333,85.333     S208.948,281.6,256.001,281.6z M256.001,128c37.641,0,68.267,30.626,68.267,68.267c0,37.641-30.626,68.267-68.267,68.267     c-37.641,0-68.267-30.626-68.267-68.267C187.735,158.626,218.361,128,256.001,128z" fill="#999999" data-original="#000000" style="" class=""/>
			<path d="M102.401,307.2c32.939,0,59.733-26.795,59.733-59.733s-26.795-59.733-59.733-59.733s-59.733,26.795-59.733,59.733     S69.463,307.2,102.401,307.2z M102.401,204.8c23.526,0,42.667,19.14,42.667,42.667c0,23.526-19.14,42.667-42.667,42.667     c-23.526,0-42.667-19.14-42.667-42.667C59.735,223.94,78.875,204.8,102.401,204.8z" fill="#999999" data-original="#000000" style="" class=""/>
			<path d="M409.568,307.2c32.939,0,59.733-26.795,59.733-59.733s-26.795-59.733-59.733-59.733     c-32.939,0-59.733,26.795-59.733,59.733S376.629,307.2,409.568,307.2z M409.568,204.8c23.526,0,42.667,19.14,42.667,42.667     c0,23.526-19.14,42.667-42.667,42.667c-23.526,0-42.667-19.14-42.667-42.667C366.901,223.94,386.042,204.8,409.568,204.8z" fill="#999999" data-original="#000000" style="" class=""/>
		</g>
	</g>
</g>
<g xmlns="http://www.w3.org/2000/svg">
</g>
<g xmlns="http://www.w3.org/2000/svg">
</g>
<g xmlns="http://www.w3.org/2000/svg">
</g>
<g xmlns="http://www.w3.org/2000/svg">
</g>
<g xmlns="http://www.w3.org/2000/svg">
</g>
<g xmlns="http://www.w3.org/2000/svg">
</g>
<g xmlns="http://www.w3.org/2000/svg">
</g>
<g xmlns="http://www.w3.org/2000/svg">
</g>
<g xmlns="http://www.w3.org/2000/svg">
</g>
<g xmlns="http://www.w3.org/2000/svg">
</g>
<g xmlns="http://www.w3.org/2000/svg">
</g>
<g xmlns="http://www.w3.org/2000/svg">
</g>
<g xmlns="http://www.w3.org/2000/svg">
</g>
<g xmlns="http://www.w3.org/2000/svg">
</g>
<g xmlns="http://www.w3.org/2000/svg">
</g>
</g></svg>
