<?xml version="1.0"?>
<svg xmlns="http://www.w3.org/2000/svg" xmlns:xlink="http://www.w3.org/1999/xlink" xmlns:svgjs="http://svgjs.com/svgjs" version="1.1" width="512" height="512" x="0" y="0" viewBox="0 0 469.421 469.421" style="enable-background:new 0 0 512 512" xml:space="preserve" class=""><circle r="234.7105" cx="234.7105" cy="234.7105" fill="#1877f2" shape="circle"/><g transform="matrix(0.7,0,0,0.7,70.41314849853518,70.41300201416016)">
<circle xmlns="http://www.w3.org/2000/svg" cx="389.421" cy="177.21" r="44.138" fill="#ffffff" data-original="#000000" style="" class=""/>
<circle xmlns="http://www.w3.org/2000/svg" cx="80" cy="177.21" r="44.138" fill="#ffffff" data-original="#000000" style="" class=""/>
<path xmlns="http://www.w3.org/2000/svg" d="M389.421,251.348c-19.914,0-38.114,7.289-52.11,19.332c15.877,17.402,26.864,38.185,32.278,60.668h99.832  C469.421,287.166,433.604,251.348,389.421,251.348z" fill="#ffffff" data-original="#000000" style="" class=""/>
<path xmlns="http://www.w3.org/2000/svg" d="M234.71,255.335c-60.061,0-108.75,48.689-108.75,108.75h217.5C343.46,304.024,294.771,255.335,234.71,255.335z" fill="#ffffff" data-original="#000000" style="" class=""/>
<path xmlns="http://www.w3.org/2000/svg" d="M80,251.348c-44.183,0-80,35.817-80,80h99.832c5.413-22.483,16.401-43.266,32.278-60.668  C118.114,258.638,99.914,251.348,80,251.348z" fill="#ffffff" data-original="#000000" style="" class=""/>
<circle xmlns="http://www.w3.org/2000/svg" cx="234.71" cy="165.335" r="60" fill="#ffffff" data-original="#000000" style="" class=""/>
<g xmlns="http://www.w3.org/2000/svg">
</g>
<g xmlns="http://www.w3.org/2000/svg">
</g>
<g xmlns="http://www.w3.org/2000/svg">
</g>
<g xmlns="http://www.w3.org/2000/svg">
</g>
<g xmlns="http://www.w3.org/2000/svg">
</g>
<g xmlns="http://www.w3.org/2000/svg">
</g>
<g xmlns="http://www.w3.org/2000/svg">
</g>
<g xmlns="http://www.w3.org/2000/svg">
</g>
<g xmlns="http://www.w3.org/2000/svg">
</g>
<g xmlns="http://www.w3.org/2000/svg">
</g>
<g xmlns="http://www.w3.org/2000/svg">
</g>
<g xmlns="http://www.w3.org/2000/svg">
</g>
<g xmlns="http://www.w3.org/2000/svg">
</g>
<g xmlns="http://www.w3.org/2000/svg">
</g>
<g xmlns="http://www.w3.org/2000/svg">
</g>
</g></svg>
