<svg id="Capa_1" enable-background="new 0 0 443.255 443.255" height="512" viewBox="0 0 443.255 443.255" width="512" xmlns="http://www.w3.org/2000/svg"><g><path d="m34.929 226.723 13.697 13.697 84.242 88.122 67.175 53.033 45.736-22.003c31.21 28.819 74.047-14.069 45.242-45.242l-106.535-129.331-149.641-126.844c-46.487 46.579-46.46 122.024.084 168.568z" fill="#ffcfbc"/><path d="m217.901 72.387-14.319-14.319c-46.597-46.603-122.189-46.567-168.737.087l256.175 256.175c31.211 28.796 74.045-14.012 45.242-45.242 23.599 23.114 61.969.178 53.438-31.193l-31.973-128.558z" fill="#ffb89b"/><path d="m239.109 51.179c-10.113 10.113-41.938 41.938-52.539 52.539l19.111 19.111c20.659 20.672 54.163 20.626 74.803 0l33.722 33.722 57.663-37.312 41.161-61.512c-40.126-45.747-113.014-62.826-173.921-6.548z" fill="#ffa07a"/><path d="m314.206 156.55 67.297 67.297c4.044 4.044 6.771 8.904 8.197 14.049l18.063-18.063c51.13-55.365 41.711-120.559 5.267-162.107z" fill="#ff8756"/><g fill="#ffd8c1"><path d="m144.899 325.857c-.468.419-.929.851-1.377 1.302-.398.444-.807.882-1.233 1.309z"/><path d="m142.288 328.468c.427-.427.836-.864 1.233-1.309-.42.423-.832.858-1.233 1.309z"/><path d="m130.978 339.778c-.427.427-.836.864-1.233 1.309.42-.423.832-.858 1.233-1.309z"/></g><path d="m142.059 339.148s1.042-11.566 1.462-11.989c11.242-12.561 10.833-31.867-1.233-43.933-12.493-12.493-32.749-12.493-45.242 0l4.524-4.524c12.493-12.493 12.493-32.748 0-45.241s-32.748-12.493-45.242 0l-12.818 12.818c-12.493 12.493-12.493 32.748 0 45.242s32.748 12.493 45.241 0l-4.524 4.524c-12.493 12.493-12.493 32.749 0 45.242 12.611 12.703 33.11 12.286 45.516-.199.399-.445 12.316-1.94 12.316-1.94z" fill="#ffb89b"/><path d="m201.102 360.137-12.064 12.064c12.493-12.493 12.493-32.748 0-45.241-12.155-12.244-31.637-12.295-44.139-1.103l-2.611 2.611-11.31 11.31c-.401.451-.813.886-1.233 1.309-11.242 12.561-10.833 31.866 1.233 43.933 12.493 12.493 32.748 12.493 45.241 0l12.064-12.064c-12.493 12.493-12.493 32.748 0 45.242 12.493 12.493 32.748 12.493 45.242 0l12.819-12.819c12.493-12.493 12.493-32.748 0-45.242-12.494-12.493-32.749-12.493-45.242 0z" fill="#ffa07a"/></g></svg>