<svg height="512" viewBox="0 0 512 512" width="512" xmlns="http://www.w3.org/2000/svg"><g><g fill="#57a4ff"><path d="m432 32h-352l-48 112h448z"/><path d="m64 219.38a63.686 63.686 0 0 0 24 4.62c30.93 0 56-21.49 56-48h-112c0 19.15 13.08 35.68 32 43.38z"/><path d="m368 176h-112c0 26.51 25.07 48 56 48s56-21.49 56-48z"/><path d="m88 256h96v176h-96z"/><path d="m216 256h208v120h-208z"/><path d="m16 456h480v24h-480z"/></g><g fill="#004fac"><path d="m487.34 184h8.66a8 8 0 0 0 8-8v-32a8 8 0 0 0 -8-8h-10.72l-45.93-107.15a8 8 0 0 0 -7.35-4.85h-352a8 8 0 0 0 -7.35 4.85l-45.93 107.15h-10.72a8 8 0 0 0 -8 8v32a8 8 0 0 0 8 8h8.66c2.84 17.29 14.74 32.04 31.34 40.47v199.53h-8a8 8 0 0 0 -8 8v16h-24a8 8 0 0 0 -8 8v24a8 8 0 0 0 8 8h480a8 8 0 0 0 8-8v-24a8 8 0 0 0 -8-8h-24v-16a8 8 0 0 0 -8-8h-8v-199.53c16.6-8.43 28.5-23.18 31.34-40.47zm-402.06-144h341.44l41.15 96h-423.74zm-61.28 128v-16h464v16zm160 80h-96a8 8 0 0 0 -8 8v168h-8v-193.77a72.98 72.98 0 0 0 16 1.77c24.07 0 45.08-11.69 56-28.93 10.92 17.24 31.93 28.93 56 28.93s45.08-11.69 56-28.93c10.92 17.24 31.93 28.93 56 28.93s45.08-11.69 56-28.93c10.92 17.24 31.93 28.93 56 28.93a72.98 72.98 0 0 0 16-1.77v193.77h-248v-168a8 8 0 0 0 -8-8zm-8 16v160h-80v-160zm-23.03-80h94.06c-4.46 18.24-23.85 32-47.03 32s-42.57-13.76-47.03-32zm112 0h94.06c-4.46 18.24-23.85 32-47.03 32s-42.57-13.76-47.03-32zm-224 0h94.06c-4.46 18.24-23.85 32-47.03 32s-42.57-13.76-47.03-32zm15.03 256h400v8h-400zm432 24v8h-464v-8zm-64-248c-23.18 0-42.57-13.76-47.03-32h94.06c-4.46 18.24-23.85 32-47.03 32z"/><path d="m216 248a8 8 0 0 0 -8 8v120a8 8 0 0 0 8 8h208a8 8 0 0 0 8-8v-120a8 8 0 0 0 -8-8zm200 120h-192v-104h192z"/><path d="m160 368a8 8 0 0 0 8-8v-32a8 8 0 0 0 -16 0v32a8 8 0 0 0 8 8z"/></g></g></svg>