<?xml version="1.0"?>
<svg xmlns="http://www.w3.org/2000/svg" xmlns:xlink="http://www.w3.org/1999/xlink" xmlns:svgjs="http://svgjs.com/svgjs" version="1.1" width="512" height="512" x="0" y="0" viewBox="0 0 512 512" style="enable-background:new 0 0 512 512" xml:space="preserve"><g><g xmlns="http://www.w3.org/2000/svg"><path d="M487.34,184H496a8,8,0,0,0,8-8V144a8,8,0,0,0-8-8H485.28L439.35,28.85A8,8,0,0,0,432,24H80a8,8,0,0,0-7.35,4.85L26.72,136H16a8,8,0,0,0-8,8v32a8,8,0,0,0,8,8h8.66C27.5,201.29,39.4,216.04,56,224.47V424H48a8,8,0,0,0-8,8v16H16a8,8,0,0,0-8,8v24a8,8,0,0,0,8,8H496a8,8,0,0,0,8-8V456a8,8,0,0,0-8-8H472V432a8,8,0,0,0-8-8h-8V224.47C472.6,216.04,484.5,201.29,487.34,184ZM85.28,40H426.72l41.15,96H44.13ZM24,168V152H488v16Zm160,80H88a8,8,0,0,0-8,8V424H72V230.23A72.98,72.98,0,0,0,88,232c24.07,0,45.08-11.69,56-28.93C154.92,220.31,175.93,232,200,232s45.08-11.69,56-28.93C266.92,220.31,287.93,232,312,232s45.08-11.69,56-28.93C378.92,220.31,399.93,232,424,232a72.98,72.98,0,0,0,16-1.77V424H192V256A8,8,0,0,0,184,248Zm-8,16V424H96V264Zm-23.03-80h94.06c-4.46,18.24-23.85,32-47.03,32S157.43,202.24,152.97,184Zm112,0h94.06c-4.46,18.24-23.85,32-47.03,32S269.43,202.24,264.97,184Zm-224,0h94.06c-4.46,18.24-23.85,32-47.03,32S45.43,202.24,40.97,184ZM56,440H456v8H56Zm432,24v8H24v-8ZM424,216c-23.18,0-42.57-13.76-47.03-32h94.06C466.57,202.24,447.18,216,424,216Z" fill="#999999" data-original="#000000" style=""/><path d="M216,248a8,8,0,0,0-8,8V376a8,8,0,0,0,8,8H424a8,8,0,0,0,8-8V256a8,8,0,0,0-8-8ZM416,368H224V264H416Z" fill="#999999" data-original="#000000" style=""/><path d="M160,368a8,8,0,0,0,8-8V328a8,8,0,0,0-16,0v32A8,8,0,0,0,160,368Z" fill="#999999" data-original="#000000" style=""/></g></g></svg>
