<svg id="Capa_1" enable-background="new 0 0 510.66 510.66" height="512" viewBox="0 0 510.66 510.66" width="512" xmlns="http://www.w3.org/2000/svg"><g id="XMLID_76_"><path id="XMLID_1033_" d="m29.33 61.33c-16.173 0-29.33 13.157-29.33 29.33v329.34c0 16.173 13.157 29.33 29.33 29.33h110v-388z" fill="#e4ebef"/><path id="XMLID_1758_" d="m50.997 270.33c7.846 0 15.363-6.899 15-15-.364-8.127-6.591-15-15-15-7.846 0-15.363 6.899-15 15 .364 8.127 6.59 15 15 15z" fill="#a7d2d7"/><path id="XMLID_980_" d="m495.66 90.66v329.34c0 7.91-6.41 14.33-14.33 14.33h-357v-358h357c7.92 0 14.33 6.42 14.33 14.33z" fill="#75e2f8"/><path id="XMLID_1576_" d="m481.33 76.33h-177v358h177c7.92 0 14.33-6.42 14.33-14.33v-329.34c0-7.91-6.41-14.33-14.33-14.33z" fill="#00cef5"/><path id="XMLID_1106_" d="m197.33 353.33-10 68h187v-58h-59z" fill="#91eb90"/><path id="XMLID_984_" d="m138.33 247.33v174h59v-58l10-116z" fill="#ff9468"/><path id="XMLID_69_" d="m256.33 305.33v-58h-59v116h118v-58z" fill="#ff5b5b"/><path id="XMLID_1574_" d="m304.33 363.33h70v58h-70z" fill="#00dd7b"/><path id="XMLID_1006_" d="m481.33 449.33h-372v-388h372c16.173 0 29.33 13.157 29.33 29.33v329.34c0 16.173-13.157 29.33-29.33 29.33zm-342-30h341.33v-328h-341.33z" fill="#a7d2d7"/><path id="XMLID_1582_" d="m481.33 61.33h-177v30h176.33v328h-176.33v30h177c16.173 0 29.33-13.157 29.33-29.33v-329.34c0-16.173-13.157-29.33-29.33-29.33z" fill="#7ba0b0"/><g fill="#ff193d"><path id="XMLID_6_" d="m304.33 151.997v58h59v58h59v-116z"/><path id="XMLID_1825_" d="m304.33 305.33h11v58h-11z"/></g></g></svg>